<?xml version="1.0" standalone="no"?>
<!DOCTYPE svg PUBLIC "-//W3C//DTD SVG 20010904//EN"
 "http://www.w3.org/TR/2001/REC-SVG-20010904/DTD/svg10.dtd">
<svg version="1.0" xmlns="http://www.w3.org/2000/svg"
 width="612.000000pt" height="612.000000pt" viewBox="0 0 612.000000 612.000000"
 preserveAspectRatio="xMidYMid meet">

<g transform="translate(0.000000,612.000000) scale(0.100000,-0.100000)"
fill="#000000" stroke="none">
<path d="M2214 4360 c-165 -18 -254 -70 -254 -146 1 -169 404 -469 916 -682
125 -52 342 -125 407 -137 29 -6 38 -12 34 -24 -4 -15 -121 -212 -439 -736
-361 -596 -519 -858 -516 -860 2 -1 152 153 333 342 l330 343 586 0 586 0 8
946 c4 520 5 947 4 948 -9 8 -1931 14 -1995 6z m296 -250 l0 -90 -94 0 -94 0
2 58 c2 31 4 72 4 90 l2 32 90 0 90 0 0 -90z m380 0 l0 -90 -90 0 -90 0 0 90
0 90 90 0 90 0 0 -90z m390 1 c0 -49 -4 -91 -10 -93 -5 -1 -48 -2 -95 0 l-85
3 0 90 0 89 95 0 95 0 0 -89z m380 -6 l0 -95 -90 0 -90 0 0 95 0 95 90 0 90 0
0 -95z m388 20 c5 -117 7 -115 -98 -115 l-90 0 0 95 0 96 93 -3 92 -3 3 -70z
m-778 -1405 l0 -90 -90 0 -90 0 0 90 0 90 90 0 90 0 0 -90z m388 -2 l-3 -93
-90 0 -90 0 -3 93 -3 92 96 0 96 0 -3 -92z m382 -3 l0 -95 -90 0 -90 0 0 95 0
95 90 0 90 0 0 -95z"/>
<path d="M1922 3838 c4 -40 11 -89 14 -108 6 -34 7 -33 30 40 l23 75 -31 32
c-18 18 -35 33 -38 33 -4 0 -3 -33 2 -72z"/>
<path d="M2123 3653 c-12 -38 -24 -78 -28 -90 -5 -18 5 -29 57 -66 35 -24 69
-47 75 -51 9 -5 24 17 48 70 19 42 35 82 35 88 -1 8 -126 97 -160 114 -3 1
-15 -28 -27 -65z"/>
<path d="M2436 3425 c-21 -47 -37 -87 -35 -89 9 -8 169 -86 177 -86 9 0 99
167 92 172 -15 10 -182 88 -188 88 -4 0 -25 -38 -46 -85z"/>
<path d="M2799 3257 c-31 -54 -43 -84 -35 -89 26 -15 176 -59 185 -54 11 7 91
140 91 152 0 8 -172 75 -190 74 -3 0 -26 -37 -51 -83z"/>
</g>
</svg>
